<svg width="127" height="31" viewBox="0 0 127 31" fill="none" xmlns="http://www.w3.org/2000/svg">
<path d="M7.48 30.4C6.38667 30.4 5.17333 30.2933 3.84 30.08C2.53333 29.8933 1.33333 29.5867 0.24 29.16L0.84 23.76H2.8L3.52 27.24C3.94667 27.3467 4.50667 27.48 5.2 27.64C5.92 27.7733 6.69333 27.84 7.52 27.84C8.98667 27.84 10.16 27.5333 11.04 26.92C11.92 26.3067 12.36 25.4667 12.36 24.4C12.36 23.3867 12.08 22.5733 11.52 21.96C10.9867 21.3467 10.1067 20.7867 8.88 20.28L4.92 18.64C4.22667 18.3467 3.56 17.9333 2.92 17.4C2.28 16.84 1.74667 16.12 1.32 15.24C0.893333 14.36 0.68 13.2933 0.68 12.04C0.68 9.8 1.4 8.05333 2.84 6.8C4.30667 5.52 6.37333 4.88 9.04 4.88C10.1867 4.88 11.3333 4.97333 12.48 5.16C13.6267 5.34667 14.7467 5.61333 15.84 5.96L15.4 11.56H13.52L12.64 7.84C12.2933 7.70667 11.7867 7.6 11.12 7.52C10.4533 7.44 9.88 7.4 9.4 7.4C8.54667 7.4 7.76 7.52 7.04 7.76C6.34667 8 5.78667 8.37333 5.36 8.88C4.96 9.38667 4.76 10.0667 4.76 10.92C4.76 11.96 5.08 12.7867 5.72 13.4C6.36 14.0133 7.22667 14.56 8.32 15.04L12.2 16.64C13.7733 17.2533 14.9067 18.08 15.6 19.12C16.32 20.16 16.68 21.48 16.68 23.08C16.68 25.2933 15.9067 27.0667 14.36 28.4C12.8133 29.7333 10.52 30.4 7.48 30.4ZM29.9853 30.4C27.7186 30.4 25.8653 29.9333 24.4253 29C23.012 28.0667 21.9853 26.84 21.3453 25.32C20.7053 23.7733 20.3853 22.08 20.3853 20.24C20.3853 18.32 20.7053 16.5867 21.3453 15.04C21.9853 13.4933 23.012 12.2667 24.4253 11.36C25.8386 10.4267 27.7053 9.96 30.0253 9.96C32.372 9.96 34.252 10.4267 35.6653 11.36C37.0786 12.2667 38.1053 13.4933 38.7453 15.04C39.412 16.5867 39.7453 18.32 39.7453 20.24C39.7453 22.08 39.412 23.7733 38.7453 25.32C38.1053 26.84 37.0653 28.0667 35.6253 29C34.212 29.9333 32.332 30.4 29.9853 30.4ZM30.1453 27.96C31.3986 27.96 32.3453 27.6267 32.9853 26.96C33.6253 26.2667 34.0653 25.3333 34.3053 24.16C34.5453 22.96 34.6653 21.6267 34.6653 20.16C34.6653 18.6667 34.532 17.3467 34.2653 16.2C33.9986 15.0267 33.5186 14.0933 32.8253 13.4C32.1586 12.7067 31.1853 12.36 29.9053 12.36C28.7053 12.36 27.7853 12.7067 27.1453 13.4C26.5053 14.0933 26.052 15.0267 25.7853 16.2C25.5453 17.3467 25.4253 18.6667 25.4253 20.16C25.4253 21.6267 25.5586 22.96 25.8253 24.16C26.092 25.3333 26.5586 26.2667 27.2253 26.96C27.9186 27.6267 28.892 27.96 30.1453 27.96ZM42.7822 30V28.24L46.0622 27.44V4.36L42.7822 3.92V2.36L49.2222 0.799999H50.7422V27.44L54.0222 28.24V30H42.7822ZM62.2812 30.4C61.2946 30.4 60.4546 30.1867 59.7612 29.76C59.0946 29.3333 58.5746 28.7467 58.2012 28C57.8546 27.2533 57.6812 26.4133 57.6812 25.48C57.6812 24.7867 57.8146 24.0533 58.0812 23.28C58.3746 22.5067 58.8812 21.8 59.6012 21.16C60.3479 20.4933 61.4146 20.0267 62.8012 19.76L68.4412 18.68V15.68C68.4412 14.64 68.2279 13.88 67.8012 13.4C67.4012 12.92 66.6546 12.68 65.5612 12.68C65.0279 12.68 64.4812 12.7333 63.9212 12.84C63.3879 12.92 62.8946 13.04 62.4412 13.2L61.5612 16.56H59.4412L58.7612 11.44C59.9612 10.9867 61.2279 10.6267 62.5612 10.36C63.9212 10.0933 65.3212 9.96 66.7612 9.96C68.0679 9.96 69.1879 10.0933 70.1212 10.36C71.0812 10.6267 71.8146 11.1067 72.3212 11.8C72.8546 12.4933 73.1212 13.4667 73.1212 14.72V27.04L76.2012 28V29.52C75.3212 29.76 74.5612 29.9333 73.9212 30.04C73.3079 30.1467 72.6812 30.2 72.0412 30.2C71.2679 30.2 70.5346 30.0267 69.8412 29.68C69.1479 29.3067 68.7079 28.76 68.5212 28.04C67.5346 28.76 66.5479 29.3333 65.5612 29.76C64.5746 30.1867 63.4812 30.4 62.2812 30.4ZM64.7212 27.44C65.3612 27.44 66.0279 27.3067 66.7212 27.04C67.4146 26.7733 67.9879 26.4933 68.4412 26.2V20.8L65.4012 21.44C64.2546 21.68 63.4546 22.1067 63.0012 22.72C62.5746 23.3333 62.3612 24.0667 62.3612 24.92C62.3612 25.8267 62.5746 26.48 63.0012 26.88C63.4546 27.2533 64.0279 27.44 64.7212 27.44ZM79.0988 30V28.32L82.3788 27.44V13.52L79.0988 13.04V11.48L85.3388 9.96H87.0188V11.8C87.9254 11.2133 88.9254 10.7467 90.0188 10.4C91.1121 10.0267 92.1254 9.84 93.0588 9.84C93.2454 9.84 93.4454 9.84 93.6588 9.84C93.8721 9.84 94.0454 9.85333 94.1788 9.88L93.4588 16.56H91.0988L90.2588 13.04C89.6988 13.04 89.1388 13.1067 88.5788 13.24C88.0188 13.3467 87.5121 13.5067 87.0588 13.72V27.44L91.6588 28.28V30H79.0988ZM97.0175 30V28.24L100.298 27.44V13.48L97.0175 13.04V11.48L103.458 9.96H104.978V27.44L108.218 28.24V30H97.0175ZM102.418 7.16C101.538 7.16 100.804 6.88 100.218 6.32C99.6575 5.76 99.3775 5.05333 99.3775 4.2C99.3775 3.34666 99.6575 2.64 100.218 2.08C100.804 1.52 101.538 1.24 102.418 1.24C103.298 1.24 104.018 1.52 104.578 2.08C105.164 2.64 105.458 3.34666 105.458 4.2C105.458 5.05333 105.164 5.76 104.578 6.32C104.018 6.88 103.298 7.16 102.418 7.16ZM118.186 30.4C117.253 30.4 116.186 30.3067 114.986 30.12C113.786 29.96 112.72 29.72 111.786 29.4L112.266 24.16H114.226L115.066 27.48C115.44 27.5867 115.866 27.6933 116.346 27.8C116.853 27.9067 117.453 27.96 118.146 27.96C119.426 27.96 120.413 27.7333 121.106 27.28C121.826 26.8 122.186 26.08 122.186 25.12C122.186 24.5067 122 24.0267 121.626 23.68C121.253 23.3333 120.573 23 119.586 22.68L115.866 21.4C114.56 20.92 113.573 20.2667 112.906 19.44C112.24 18.5867 111.906 17.4533 111.906 16.04C111.906 14.2 112.52 12.7333 113.746 11.64C114.973 10.52 116.866 9.96 119.426 9.96C120.386 9.96 121.386 10.0667 122.426 10.28C123.466 10.4667 124.453 10.76 125.386 11.16L124.826 15.92H122.946L122.106 13C121.76 12.84 121.346 12.7067 120.866 12.6C120.413 12.4667 119.906 12.4 119.346 12.4C118.253 12.4 117.386 12.6133 116.746 13.04C116.133 13.44 115.826 14.0267 115.826 14.8C115.826 15.4667 115.986 16 116.306 16.4C116.626 16.8 117.2 17.1333 118.026 17.4L122.026 18.72C123.04 19.04 123.84 19.44 124.426 19.92C125.04 20.3733 125.48 20.9467 125.746 21.64C126.04 22.3333 126.186 23.1867 126.186 24.2C126.186 26.0667 125.493 27.5733 124.106 28.72C122.746 29.84 120.773 30.4 118.186 30.4Z" fill="url(#paint0_linear_16_1323)"/>
<defs>
<linearGradient id="paint0_linear_16_1323" x1="63.5" y1="-13" x2="63.5" y2="44" gradientUnits="userSpaceOnUse">
<stop stop-color="#E6C300"/>
<stop offset="1" stop-color="#FF8C00"/>
</linearGradient>
</defs>
</svg>
